<?xml version="1.0" encoding="UTF-8"?>
<svg id="Layer_1" xmlns="http://www.w3.org/2000/svg" version="1.1" viewBox="0 0 258.55 80">
  <!-- Generator: Adobe Illustrator 29.3.1, SVG Export Plug-In . SVG Version: 2.1.0 Build 151)  -->
  <defs>
    <style>
      .st0 {
        fill: #231f20;
      }
    </style>
  </defs>
  <path class="st0" d="M22.38,48.99l-6.5-.48.03,5.28,6.51.5-.05-5.29ZM21.37,53.45l-4.57-.32-.1-3.88,4.68.32-.02,3.88Z"/>
  <ellipse class="st0" cx="24.02" cy="64.35" rx=".37" ry=".35"/>
  <ellipse class="st0" cx="14.06" cy="63.74" rx=".43" ry=".38"/>
  <g>
    <polygon points="67.07 7.9 64.4 23.99 66.5 24.07 68.73 9.2 67.07 7.9"/>
    <circle cx="31.57" cy="23.94" r="3.34"/>
    <g>
      <path d="M77.23,25.81l-30.38-.82-19.16,4.68-.2,9.84-3.16-.1v2.22l-22.09-1.45.44,33.58,33.41,3.18.16-5.52,7-3.66,17.37,1.66,16.92-8.88-.33-34.74ZM23.11,48.29l-.09,6.56-7.72-.48-.18-6.66,7.98.58ZM25.07,65.02l-2.04.07-.78.56-7.19-.55-.5-.52-1.31-.12.03-1.62c.07.01,1.93.09,1.93.09l.15.51,6.91.58.29-.59,2.6.28-.08,1.31ZM25.44,41.8l-.03-.17-.11-1.57,24.51,1.04,1.71,9.29-1.53.53-.79-8.2-23.76-.92ZM31.62,38l-.05-.77,23.84.05-.63,11.8-1.14.28.42-11.36h-22.44ZM53.15,38.69l-.1,10.9-.85.55-1.18-10.15-20.6-.63.34-.77,22.4.1ZM49.24,51.08l-13.01,5.02.06-13.22,12.3.48.64,7.72ZM36.13,69.73l.22-13.02,20.73-7.81.07,10.23-21.02,10.6ZM57.84,67.54l-.18-33.27-27.81-.77-.15,5.74-1.67-.12.15-8.76,31.7.92.23,36.52-2.28-.26Z"/>
      <polygon points="63.7 24 66.46 6.3 42.91 5.47 38.4 25.17 46.92 22.92 63.7 24"/>
      <path d="M22.63,38.45l3.71-.35-.27-8.31c-1.34-1.41-2.16-3.31-2.16-5.41,0-4.33,3.51-7.85,7.85-7.85,2.72,0,5.12,1.39,6.53,3.49l2.92-11.4c-2.76-1.66-5.99-2.61-9.44-2.61-10.15,0-18.37,8.22-18.37,18.37,0,6.8,3.7,12.74,9.19,15.92l.05-1.85Z"/>
      <path d="M11.61,26.06l-8.27,2.42,2.09,10.19,13.51,1.27s-2.99-1.64-5.2-6.28-2.13-7.6-2.13-7.6Z"/>
    </g>
  </g>
  <g>
    <path d="M86.79,6.36h24.26c15.55,0,23.79,9.05,23.79,22.52,0,12.77-8.36,22.4-23.56,22.4h-16.02v24.72h-8.47V6.36ZM110.36,44.54c11.49,0,16.37-6.27,16.37-15.55s-4.18-15.55-16.48-15.55h-14.97v31.11h15.09Z"/>
    <path d="M140.48,6.36h13.93l7.31,32.5c1.16,5.46,2.2,12.54,3.83,20.89h1.97c1.74-11.03,3.25-18.8,5.57-29.36l4.99-24.03h13.7v69.64h-7.66v-35.63c0-8.82.58-19.85.93-27.16h-2.67c-1.28,7.78-2.55,16.6-4.29,24.03l-7.08,29.95h-9.52l-7.78-32.27c-1.51-6.04-3.02-14.86-4.29-21.7h-2.21c.23,7.2.81,17.64.81,25.42v37.37h-7.54V6.36Z"/>
    <path d="M219.58,6.36h12.88l22.4,69.64h-8.82l-6.15-20.2h-27.97l-6.15,20.2h-8.59L219.58,6.36ZM237.8,48.95l-2.79-9.17c-2.67-8.47-5.22-18.8-6.85-26.35h-4.3c-1.97,7.66-4.64,17.76-7.2,26.35l-2.79,9.17h23.91Z"/>
  </g>
</svg>